<svg xmlns="http://www.w3.org/2000/svg" viewBox="0 0 160 32" width="160" height="32">
  <!-- Dark mode logo -->
  <defs>
    <linearGradient id="clawGradDark" x1="0%" y1="0%" x2="100%" y2="100%">
      <stop offset="0%" style="stop-color:#07C983"/>
      <stop offset="100%" style="stop-color:#16A34A"/>
    </linearGradient>
  </defs>
  <!-- 小龙虾图标 -->
  <g transform="translate(0, 2) scale(0.6)">
    <!-- 左钳 -->
    <path d="M14 28 C8 28 4 22 6 16 C8 10 14 8 18 12 L22 18 L18 24 C16 28 14 28 14 28Z" fill="url(#clawGradDark)"/>
    <!-- 右钳 -->
    <path d="M34 28 C40 28 44 22 42 16 C40 10 34 8 30 12 L26 18 L30 24 C32 28 34 28 34 28Z" fill="url(#clawGradDark)"/>
    <!-- 身体 -->
    <ellipse cx="24" cy="32" rx="10" ry="12" fill="url(#clawGradDark)"/>
    <!-- 眼睛 -->
    <circle cx="20" cy="28" r="2" fill="#fff"/>
    <circle cx="28" cy="28" r="2" fill="#fff"/>
    <circle cx="20" cy="28" r="1" fill="#15803D"/>
    <circle cx="28" cy="28" r="1" fill="#15803D"/>
  </g>
  <!-- 文字 -->
  <text x="38" y="22" font-family="system-ui, -apple-system, sans-serif" font-size="18" font-weight="600" fill="#ffffff">
    OpenClaw
  </text>
  <text x="110" y="22" font-family="system-ui, -apple-system, sans-serif" font-size="14" font-weight="400" fill="#a0a0a0">
    从零开始
  </text>
</svg>